<svg xmlns="http://www.w3.org/2000/svg" version="1.1" xmlns:xlink="http://www.w3.org/1999/xlink" width="1000" height="1000"><metadata><rdf:RDF xmlns:rdf="http://www.w3.org/1999/02/22-rdf-syntax-ns#" xmlns:dc="http://purl.org/dc/elements/1.1/"><rdf:Description><dc:creator>RealFaviconGenerator</dc:creator><dc:source>https://realfavicongenerator.net</dc:source></rdf:Description></rdf:RDF></metadata><g clip-path="url(#SvgjsClipPath1178)"><rect width="1000" height="1000" fill="#000000"></rect><g transform="matrix(5.645161290322581,0,0,5.645161290322581,150,150)"><svg xmlns="http://www.w3.org/2000/svg" width="124" height="124" viewBox="0 0 124 124" fill="none"><path d="M50.1618 116.846C45.5064 116.645 41.1547 115.99 37.1065 114.882C33.1595 113.774 29.668 111.91 26.6319 109.291C23.5957 106.572 21.2174 102.845 19.497 98.1103C17.8777 93.376 17.0681 87.3322 17.0681 79.9789C17.0681 72.827 18.0295 66.6322 19.9524 61.3942C21.9765 56.1562 24.3548 51.9759 27.0873 48.8533C29.8198 45.7307 32.2993 43.8168 34.5258 43.1117L33.7667 40.2409H31.186C26.5307 40.2409 22.8367 38.7803 20.1042 35.8591C17.4729 32.8372 16.1066 28.808 16.0054 23.7715C15.9042 18.735 17.2199 14.7058 19.9524 11.6839C22.7861 8.56132 26.5307 7 31.186 7H72.9328C83.8628 7 91.7567 9.61898 96.6145 14.8569C101.472 19.9942 103.901 26.6927 103.901 34.9526C103.901 41.6008 102.333 47.1409 99.1952 51.573C96.1591 56.0051 91.5543 58.6745 85.3809 59.5811V61.8475C92.0603 62.1497 97.4748 64.4665 101.624 68.7978C105.875 73.0285 108 79.3241 108 87.6847C108 96.7504 105.369 103.953 100.106 109.291C94.8435 114.529 86.1905 117.098 74.1472 116.997L50.1618 116.846ZM46.0631 49.0044C46.0631 51.2205 46.4679 52.681 47.2775 53.3862C48.0871 54.0913 49.6052 54.4438 51.8317 54.4438H65.7979C69.6436 54.4438 72.5785 53.8898 74.6026 52.7818C76.6267 51.573 77.6388 49.2562 77.6388 45.8314C77.6388 42.3059 76.6267 39.9891 74.6026 38.881C72.5785 37.773 69.6436 37.219 65.7979 37.219H51.8317C49.6052 37.219 48.0871 37.5212 47.2775 38.1256C46.4679 38.7299 46.0631 40.1905 46.0631 42.5073V49.0044ZM46.0631 79.3745C46.0631 81.5906 46.4679 83.1015 47.2775 83.9073C48.1883 84.7132 49.8076 85.1161 52.1353 85.1161H67.7713C71.7183 85.1161 74.7544 84.411 76.8797 83.0008C79.005 81.5906 80.0677 79.0723 80.0677 75.446C80.0677 71.8197 79.005 69.3519 76.8797 68.0424C74.7544 66.6322 71.7183 65.927 67.7713 65.927H52.1353C49.8076 65.927 48.1883 66.2796 47.2775 66.9847C46.4679 67.6898 46.0631 69.1504 46.0631 71.3665V79.3745Z" fill="#F5EDDF"></path></svg></g></g><defs><clipPath id="SvgjsClipPath1178"><rect width="1000" height="1000" x="0" y="0" rx="400" ry="400"></rect></clipPath></defs></svg>