<svg width="386" height="115" viewBox="0 0 386 115" fill="none" xmlns="http://www.w3.org/2000/svg">
<path d="M38.8046 103.824C34.8792 103.653 31.2099 103.099 27.7966 102.16C24.4686 101.221 21.5246 99.6427 18.9646 97.424C16.4046 95.12 14.3992 91.9627 12.9486 87.952C11.5832 83.9413 10.9006 78.8213 10.9006 72.592C10.9006 66.5333 11.7112 61.2853 13.3326 56.848C15.0392 52.4107 17.0446 48.8693 19.3486 46.224C21.6526 43.5787 23.7432 41.9573 25.6206 41.36L24.9806 38.928H22.8046C18.8792 38.928 15.7646 37.6907 13.4606 35.216C11.2419 32.656 10.0899 29.2427 10.0046 24.976C9.91924 20.7093 11.0286 17.296 13.3326 14.736C15.7219 12.0907 18.8792 10.768 22.8046 10.768H58.0046C67.2206 10.768 73.8766 12.9867 77.9726 17.424C82.0686 21.776 84.1166 27.4507 84.1166 34.448C84.1166 40.08 82.7939 44.7733 80.1486 48.528C77.5886 52.2827 73.7059 54.544 68.5006 55.312V57.232C74.1326 57.488 78.6979 59.4507 82.1966 63.12C85.7806 66.704 87.5726 72.0373 87.5726 79.12C87.5726 86.8 85.3539 92.9013 80.9166 97.424C76.4792 101.861 69.1832 104.037 59.0286 103.952L38.8046 103.824ZM35.3486 46.352C35.3486 48.2293 35.6899 49.4667 36.3726 50.064C37.0552 50.6613 38.3352 50.96 40.2126 50.96H51.9886C55.2312 50.96 57.7059 50.4907 59.4126 49.552C61.1192 48.528 61.9726 46.5653 61.9726 43.664C61.9726 40.6773 61.1192 38.7147 59.4126 37.776C57.7059 36.8373 55.2312 36.368 51.9886 36.368H40.2126C38.3352 36.368 37.0552 36.624 36.3726 37.136C35.6899 37.648 35.3486 38.8853 35.3486 40.848V46.352ZM35.3486 72.08C35.3486 73.9573 35.6899 75.2373 36.3726 75.92C37.1406 76.6027 38.5059 76.944 40.4686 76.944H53.6526C56.9806 76.944 59.5406 76.3467 61.3326 75.152C63.1246 73.9573 64.0206 71.824 64.0206 68.752C64.0206 65.68 63.1246 63.5893 61.3326 62.48C59.5406 61.2853 56.9806 60.688 53.6526 60.688H40.4686C38.5059 60.688 37.1406 60.9867 36.3726 61.584C35.6899 62.1813 35.3486 63.4187 35.3486 65.296V72.08Z" fill="#F5EDDF"/>
<path d="M155.868 103.952C151.601 103.952 148.23 102.672 145.756 100.112C143.281 97.4667 141.958 94.0533 141.788 89.872C141.446 82.6187 139.612 77.4987 136.284 74.512C133.041 71.44 128.689 69.904 123.228 69.904H120.668V90.384C120.668 94.8213 119.473 98.192 117.084 100.496C114.694 102.8 111.537 103.952 107.612 103.952C103.43 103.952 100.145 102.8 97.7556 100.496C95.3662 98.192 94.1716 94.8213 94.1716 90.384V72.336C94.1716 63.2907 95.4942 56.4213 98.1396 51.728C100.87 47.0347 104.326 43.664 108.508 41.616L107.868 39.184H105.82C101.894 39.184 98.7796 37.9467 96.4756 35.472C94.2569 32.912 93.0622 29.456 92.8916 25.104C92.8062 20.8373 93.9582 17.3813 96.3476 14.736C98.7369 12.0907 101.894 10.768 105.82 10.768H138.46C147.59 10.768 154.972 12.9867 160.604 17.424C166.236 21.8613 169.052 28.944 169.052 38.672C169.052 43.7067 168.198 47.9307 166.492 51.344C164.785 54.672 162.609 57.232 159.964 59.024C157.318 60.816 154.545 61.8827 151.644 62.224V63.888C156.934 65.168 161.286 67.984 164.7 72.336C168.198 76.688 169.948 82.5333 169.948 89.872C169.948 94.5653 168.668 98.1067 166.108 100.496C163.633 102.8 160.22 103.952 155.868 103.952ZM120.028 50.32C120.028 52.1973 120.369 53.4347 121.052 54.032C121.734 54.6293 123.014 54.928 124.892 54.928H136.924C140.508 54.928 143.11 54.1173 144.732 52.496C146.353 50.8747 147.164 48.6133 147.164 45.712C147.164 42.7253 146.353 40.4213 144.732 38.8C143.11 37.1787 140.508 36.368 136.924 36.368H124.892C123.014 36.368 121.734 36.624 121.052 37.136C120.369 37.648 120.028 38.8853 120.028 40.848V50.32Z" fill="#F5EDDF"/>
<path d="M187.4 103.952C181.682 103.099 177.97 100.496 176.264 96.144C174.557 91.7067 174.898 86.1173 177.288 79.376L194.184 31.376C195.72 26.9387 197.469 23.1413 199.432 19.984C201.48 16.8267 203.997 14.3947 206.984 12.688C210.056 10.9813 213.853 10.128 218.376 10.128C225.202 10.128 230.322 12.0053 233.736 15.76C237.234 19.5147 240.136 24.72 242.44 31.376L259.208 79.376C261.597 86.1173 262.024 91.7067 260.488 96.144C259.037 100.496 255.41 103.099 249.608 103.952C244.914 104.549 240.818 103.995 237.32 102.288C233.906 100.581 231.858 97.808 231.176 93.968C230.664 91.408 230.578 89.2747 230.92 87.568C231.346 85.8613 231.73 84.496 232.072 83.472C232.328 82.6187 232.328 81.808 232.072 81.04C231.901 80.1867 231.261 79.76 230.152 79.76H206.344C205.234 79.76 204.552 80.1867 204.296 81.04C204.125 81.808 204.21 82.6187 204.552 83.472C204.893 84.496 205.234 85.8613 205.576 87.568C205.917 89.2747 205.874 91.408 205.448 93.968C204.765 97.808 202.76 100.581 199.432 102.288C196.104 103.995 192.093 104.549 187.4 103.952ZM227.72 61.84L221.064 40.976C220.893 40.1227 220.594 39.4827 220.168 39.056C219.826 38.544 219.229 38.288 218.376 38.288C217.522 38.288 216.882 38.544 216.456 39.056C216.114 39.4827 215.816 40.1227 215.56 40.976L209.032 61.84H227.72Z" fill="#F5EDDF"/>
<path d="M306.689 104.208C298.326 104.208 290.774 102.501 284.033 99.088C277.377 95.5893 272.129 90.4267 268.289 83.6C264.449 76.7733 262.529 68.368 262.529 58.384C262.529 48.4 264.449 39.7813 268.289 32.528C272.214 25.2747 277.547 19.728 284.289 15.888C291.115 11.9627 298.881 10 307.585 10C317.654 10 325.377 11.408 330.753 14.224C336.129 17.04 338.817 21.2213 338.817 26.768C338.817 31.0347 337.665 34.576 335.361 37.392C333.057 40.1227 329.899 41.488 325.889 41.488C322.475 41.488 319.147 41.0613 315.905 40.208C312.747 39.2693 309.035 38.8 304.769 38.8C299.307 38.8 294.998 40.3787 291.841 43.536C288.683 46.6933 287.105 50.832 287.105 55.952C287.105 60.9867 288.683 65.2107 291.841 68.624C294.998 71.952 299.307 73.616 304.769 73.616C307.67 73.616 310.315 73.4027 312.705 72.976C315.179 72.464 317.569 71.952 319.873 71.44C322.262 70.928 324.822 70.672 327.553 70.672C332.075 70.672 335.403 72.1653 337.537 75.152C339.67 78.0533 340.737 81.68 340.737 86.032C340.737 90.384 339.158 93.9253 336.001 96.656C332.843 99.3013 328.662 101.221 323.457 102.416C318.337 103.611 312.747 104.208 306.689 104.208Z" fill="#F5EDDF"/>
<path d="M361.344 104.208C357.418 104.208 354.218 103.013 351.744 100.624C349.269 98.2347 348.032 95.2053 348.032 91.536V23.824C348.032 20.0693 349.226 16.912 351.616 14.352C354.09 11.792 357.333 10.512 361.344 10.512C365.61 10.512 368.938 11.792 371.328 14.352C373.802 16.8267 375.04 19.8987 375.04 23.568V91.536C375.04 95.2053 373.717 98.2347 371.072 100.624C368.512 103.013 365.269 104.208 361.344 104.208Z" fill="#F5EDDF"/>
</svg>
